<?xml version="1.0" encoding="UTF-8" standalone="no"?>
<!-- Created with Inkscape (http://www.inkscape.org/) -->

<svg
   xmlns:dc="http://purl.org/dc/elements/1.1/"
   xmlns:cc="http://creativecommons.org/ns#"
   xmlns:rdf="http://www.w3.org/1999/02/22-rdf-syntax-ns#"
   xmlns:svg="http://www.w3.org/2000/svg"
   xmlns="http://www.w3.org/2000/svg"
   xmlns:sodipodi="http://sodipodi.sourceforge.net/DTD/sodipodi-0.dtd"
   xmlns:inkscape="http://www.inkscape.org/namespaces/inkscape"
   width="96.320007"
   height="96.320007"
   viewBox="0 0 25.484669 25.484669"
   version="1.1"
   id="svg8"
   inkscape:version="0.92.4 (5da689c313, 2019-01-14)"
   sodipodi:docname="logo - invert.svg"
   inkscape:export-filename="/home/jan/Dokumenty/html/tk/hlaskovnik/assets/img/logo-256px.png"
   inkscape:export-xdpi="255.14948"
   inkscape:export-ydpi="255.14948">
  <defs
     id="defs2" />
  <sodipodi:namedview
     id="base"
     pagecolor="#ffffff"
     bordercolor="#666666"
     borderopacity="1.0"
     inkscape:pageopacity="0.0"
     inkscape:pageshadow="2"
     inkscape:zoom="3.959798"
     inkscape:cx="81.127845"
     inkscape:cy="86.321423"
     inkscape:document-units="mm"
     inkscape:current-layer="layer1"
     showgrid="false"
     fit-margin-top="0"
     fit-margin-left="0"
     fit-margin-right="0"
     fit-margin-bottom="0"
     units="px"
     inkscape:window-width="1916"
     inkscape:window-height="991"
     inkscape:window-x="1280"
     inkscape:window-y="53"
     inkscape:window-maximized="0" />
  <metadata
     id="metadata5">
    <rdf:RDF>
      <cc:Work
         rdf:about="">
        <dc:format>image/svg+xml</dc:format>
        <dc:type
           rdf:resource="http://purl.org/dc/dcmitype/StillImage" />
        <dc:title></dc:title>
      </cc:Work>
    </rdf:RDF>
  </metadata>
  <g
     inkscape:label="Vrstva 1"
     inkscape:groupmode="layer"
     id="layer1"
     transform="translate(-5.0225471,-187.73199)">
    <path
       style="opacity:1;fill:#ffffff;fill-opacity:1;fill-rule:nonzero;stroke:none;stroke-width:1.09392238;stroke-linecap:butt;stroke-linejoin:round;stroke-miterlimit:4;stroke-dasharray:none;stroke-dashoffset:0;stroke-opacity:1;paint-order:markers fill stroke"
       d="M 48.160156 -0.001953125 A 48.16063 48.16063 0 0 0 0 48.160156 A 48.16063 48.16063 0 0 0 48.160156 96.320312 A 48.16063 48.16063 0 0 0 96.320312 48.160156 A 48.16063 48.16063 0 0 0 48.160156 -0.001953125 z M 66.630859 22.636719 L 71.314453 22.636719 L 69.050781 31.953125 C 70.419273 32.935626 71.103516 34.268816 71.103516 35.953125 C 71.103516 37.286517 70.613365 38.407986 69.630859 39.320312 C 68.683443 40.23264 67.507096 40.689453 66.103516 40.689453 C 64.699935 40.689453 63.543187 40.23264 62.630859 39.320312 C 61.718532 38.407986 61.261719 37.286517 61.261719 35.953125 C 61.261719 35.14607 61.36758 34.33833 61.578125 33.53125 C 61.823744 32.689121 62.243313 31.671561 62.839844 30.478516 L 66.630859 22.636719 z M 78.894531 22.636719 L 83.578125 22.636719 L 81.314453 31.953125 C 82.682942 32.970725 83.367188 34.303916 83.367188 35.953125 C 83.367187 37.251418 82.877037 38.372887 81.894531 39.320312 C 80.947115 40.23264 79.788411 40.689453 78.419922 40.689453 C 77.016341 40.689453 75.841948 40.23264 74.894531 39.320312 C 73.947115 38.407986 73.472656 37.286517 73.472656 35.953125 C 73.472656 35.181144 73.596178 34.391039 73.841797 33.583984 C 74.087416 32.74183 74.524633 31.706635 75.15625 30.478516 L 78.894531 22.636719 z M 42.703125 27.689453 L 51.546875 27.689453 L 50.494141 50.742188 L 43.808594 50.742188 L 42.703125 27.689453 z M 47.125 55.533203 C 48.458402 55.533203 49.581813 56.005698 50.494141 56.953125 C 51.406468 57.865453 51.861328 58.971213 51.861328 60.269531 C 51.861328 61.602923 51.406468 62.743979 50.494141 63.691406 C 49.581813 64.603734 48.458402 65.058594 47.125 65.058594 C 45.826689 65.058594 44.703276 64.603734 43.755859 63.691406 C 42.843532 62.743979 42.388672 61.602923 42.388672 60.269531 C 42.388672 58.971213 42.843532 57.865453 43.755859 56.953125 C 44.703276 56.005698 45.826689 55.533203 47.125 55.533203 z M 15.830078 55.691406 C 17.233658 55.691406 18.410005 56.146266 19.357422 57.058594 C 20.304839 57.970921 20.777344 59.094317 20.777344 60.427734 C 20.777344 61.234789 20.655775 62.042554 20.410156 62.849609 C 20.164537 63.656664 19.72537 64.674199 19.09375 65.902344 L 15.355469 73.744141 L 10.671875 73.744141 L 12.988281 64.427734 C 11.584701 63.445234 10.882812 62.112018 10.882812 60.427734 C 10.882813 59.129416 11.355318 58.023656 12.302734 57.111328 C 13.28524 56.163901 14.461588 55.691406 15.830078 55.691406 z M 28.09375 55.691406 C 29.49733 55.691406 30.656032 56.146266 31.568359 57.058594 C 32.515776 57.970921 32.988281 59.094317 32.988281 60.427734 C 32.988281 61.234789 32.866713 62.058261 32.621094 62.900391 C 32.410549 63.707471 31.989024 64.709298 31.357422 65.902344 L 27.568359 73.744141 L 22.882812 73.744141 L 25.199219 64.427734 C 23.795638 63.445234 23.09375 62.112018 23.09375 60.427734 C 23.09375 59.094317 23.568208 57.970921 24.515625 57.058594 C 25.498133 56.146266 26.690172 55.691406 28.09375 55.691406 z "
       id="path827"
       transform="matrix(0.26458333,0,0,0.26458333,5.0225471,187.73199)" />
    <text
       xml:space="preserve"
       style="font-style:normal;font-variant:normal;font-weight:normal;font-stretch:normal;font-size:10.93611145px;line-height:125%;font-family:'Fira Code';-inkscape-font-specification:'Fira Code, Normal';font-variant-ligatures:normal;font-variant-caps:normal;font-variant-numeric:normal;font-feature-settings:normal;text-align:start;letter-spacing:0px;word-spacing:0px;writing-mode:lr-tb;text-anchor:start;fill:#000000;fill-opacity:1;stroke:none;stroke-width:0.26458332px;stroke-linecap:butt;stroke-linejoin:miter;stroke-opacity:1"
       x="-12.121174"
       y="211.67188"
       id="text817"
       transform="scale(-1,1)"><tspan
         sodipodi:role="line"
         id="tspan815"
         x="-12.121174"
         y="221.55994"
         style="font-style:normal;font-variant:normal;font-weight:normal;font-stretch:normal;font-size:10.93611145px;font-family:'Fira Code';-inkscape-font-specification:'Fira Code, Normal';font-variant-ligatures:normal;font-variant-caps:normal;font-variant-numeric:normal;font-feature-settings:normal;text-align:start;writing-mode:lr-tb;text-anchor:start;stroke-width:0.26458332px" /></text>
    <text
       xml:space="preserve"
       style="font-style:normal;font-variant:normal;font-weight:normal;font-stretch:normal;font-size:10.93611145px;line-height:125%;font-family:'Fira Code';-inkscape-font-specification:'Fira Code, Normal';font-variant-ligatures:normal;font-variant-caps:normal;font-variant-numeric:normal;font-feature-settings:normal;text-align:start;letter-spacing:0px;word-spacing:0px;writing-mode:lr-tb;text-anchor:start;fill:#000000;fill-opacity:1;stroke:none;stroke-width:0.26458332px;stroke-linecap:butt;stroke-linejoin:miter;stroke-opacity:1"
       x="-19.302723"
       y="200.04909"
       id="text821"
       transform="scale(-1,1)"><tspan
         sodipodi:role="line"
         id="tspan819"
         x="-19.302723"
         y="209.93715"
         style="font-style:normal;font-variant:normal;font-weight:normal;font-stretch:normal;font-size:10.93611145px;font-family:'Fira Code';-inkscape-font-specification:'Fira Code, Normal';font-variant-ligatures:normal;font-variant-caps:normal;font-variant-numeric:normal;font-feature-settings:normal;text-align:start;writing-mode:lr-tb;text-anchor:start;stroke-width:0.26458332px" /></text>
  </g>
</svg>
